<?xml version="1.0" encoding="utf-8"?>
<svg version="1.1" xmlns:xlink="http://www.w3.org/1999/xlink" width="300px" height="734px" xmlns="http://www.w3.org/2000/svg">
  <g>
    <path d="M 0 0  L 300 0  L 300 734  L 0 734  L 0 0  " fill-rule="nonzero" fill="#cccccc" stroke="none" />
    <path d="M 21 21  L 279 21  L 279 713  L 21 713  L 21 21  " fill-rule="nonzero" fill="#ffffff" stroke="none" />
    <path d="M 178.5 155.1  C 165.9 155.1  156 145.2  156 132.6  C 156 120  165.9 110.1  178.5 110.1  C 191.1 110.1  201 120  201 132.6  C 201 145.2  191.1 155.1  178.5 155.1  " fill-rule="nonzero" fill="#cccccc" stroke="none" />
    <path d="M 29 706  L 29 333.65  L 89.75 164.4  L 174.8 299.8  L 223.4 265.95  L 272 299.8  L 272 706  L 29 706  " fill-rule="nonzero" fill="#169bd5" stroke="none" />
  </g>
</svg>