<?xml version="1.0" encoding="utf-8"?>
<svg version="1.1" xmlns:xlink="http://www.w3.org/1999/xlink" width="781px" height="170px" xmlns="http://www.w3.org/2000/svg">
  <g transform="matrix(1 0 0 1 -92 -10 )">
    <path d="M 92 10  L 873 10  L 873 180  L 92 180  L 92 10  " fill-rule="nonzero" fill="#cccccc" stroke="none" />
    <path d="M 104 22  L 861 22  L 861 168  L 104 168  L 104 22  " fill-rule="nonzero" fill="#ffffff" stroke="none" />
    <path d="M 510.87 61  C 503.73 61  498.12 55.39  498.12 48.25  C 498.12 41.11  503.73 35.5  510.87 35.5  C 518.01 35.5  523.62 41.11  523.62 48.25  C 523.62 55.39  518.01 61  510.87 61  " fill-rule="nonzero" fill="#cccccc" stroke="none" />
    <path d="M 109 164  L 109 88.65  L 296 54.4  L 557.8 146.107554417414  L 707.4 74.95  L 857 146.107554417414  L 857 164  L 109 164  " fill-rule="nonzero" fill="#169bd5" stroke="none" />
  </g>
</svg>