<?xml version="1.0" encoding="utf-8"?>
<svg version="1.1" xmlns:xlink="http://www.w3.org/1999/xlink" width="874px" height="170px" xmlns="http://www.w3.org/2000/svg">
  <g transform="matrix(1 0 0 1 0 -12 )">
    <path d="M 0 12  L 874 12  L 874 182  L 0 182  L 0 12  " fill-rule="nonzero" fill="#cccccc" stroke="none" />
    <path d="M 12 24  L 862 24  L 862 170  L 12 170  L 12 24  " fill-rule="nonzero" fill="#ffffff" stroke="none" />
    <path d="M 467.23 63  C 460.09 63  454.48 57.39  454.48 50.25  C 454.48 43.11  460.09 37.5  467.23 37.5  C 474.37 37.5  479.98 43.11  479.98 50.25  C 479.98 57.39  474.37 63  467.23 63  " fill-rule="nonzero" fill="#cccccc" stroke="none" />
    <path d="M 17 166  L 17 90.65  L 227.25 56.4  L 521.6 150.011441647597  L 689.8 76.95  L 858 150.011441647597  L 858 166  L 17 166  " fill-rule="nonzero" fill="#169bd5" stroke="none" />
  </g>
</svg>