<?xml version="1.0" encoding="utf-8"?>
<svg version="1.1" xmlns:xlink="http://www.w3.org/1999/xlink" width="874px" height="96px" xmlns="http://www.w3.org/2000/svg">
  <g transform="matrix(1 0 0 1 0 -201 )">
    <path d="M 0 201  L 874 201  L 874 297  L 0 297  L 0 201  " fill-rule="nonzero" fill="#cccccc" stroke="none" />
    <path d="M 7 208  L 867 208  L 867 290  L 7 290  L 7 208  " fill-rule="nonzero" fill="#ffffff" stroke="none" />
    <path d="M 461.68 229.8  C 457.648 229.8  454.48 226.632  454.48 222.6  C 454.48 218.568  457.648 215.4  461.68 215.4  C 465.712 215.4  468.88 218.568  468.88 222.6  C 468.88 226.632  465.712 229.8  461.68 229.8  " fill-rule="nonzero" fill="#cccccc" stroke="none" />
    <path d="M 10 288  L 10 245.65  L 223.75 226.4  L 523 282.925400457666  L 694 237.95  L 865 282.925400457666  L 865 288  L 10 288  " fill-rule="nonzero" fill="#169bd5" stroke="none" />
  </g>
</svg>