<?xml version="1.0" encoding="utf-8"?>
<svg version="1.1" xmlns:xlink="http://www.w3.org/1999/xlink" width="300px" height="622px" xmlns="http://www.w3.org/2000/svg">
  <g>
    <path d="M 0 0  L 300 0  L 300 622  L 0 622  L 0 0  " fill-rule="nonzero" fill="#cccccc" stroke="none" />
    <path d="M 21 21  L 279 21  L 279 601  L 21 601  L 21 21  " fill-rule="nonzero" fill="#ffffff" stroke="none" />
    <path d="M 178.5 138.3  C 165.9 138.3  156 128.4  156 115.8  C 156 103.2  165.9 93.3  178.5 93.3  C 191.1 93.3  201 103.2  201 115.8  C 201 128.4  191.1 138.3  178.5 138.3  " fill-rule="nonzero" fill="#cccccc" stroke="none" />
    <path d="M 29 594  L 29 283.25  L 89.75 142  L 174.8 255  L 223.4 226.75  L 272 255  L 272 594  L 29 594  " fill-rule="nonzero" fill="#169bd5" stroke="none" />
  </g>
</svg>