<?xml version="1.0" encoding="utf-8"?>
<svg version="1.1" xmlns:xlink="http://www.w3.org/1999/xlink" width="300px" height="505px" xmlns="http://www.w3.org/2000/svg">
  <g>
    <path d="M 0 0  L 300 0  L 300 505  L 0 505  L 0 0  " fill-rule="nonzero" fill="#cccccc" stroke="none" />
    <path d="M 21 21  L 279 21  L 279 484  L 21 484  L 21 21  " fill-rule="nonzero" fill="#ffffff" stroke="none" />
    <path d="M 178.5 120.75  C 165.9 120.75  156 110.85  156 98.25  C 156 85.65  165.9 75.75  178.5 75.75  C 191.1 75.75  201 85.65  201 98.25  C 201 110.85  191.1 120.75  178.5 120.75  " fill-rule="nonzero" fill="#cccccc" stroke="none" />
    <path d="M 29 477  L 29 230.6  L 89.75 118.6  L 174.8 208.2  L 223.4 185.8  L 272 208.2  L 272 477  L 29 477  " fill-rule="nonzero" fill="#169bd5" stroke="none" />
  </g>
</svg>